# xmcd
#
# Track frame offsets: 
#        150
#        16671
#        34073
#        48458
#        73161
#        101348
#        120661
#        139798
#        165302
#        190566
#        208782
#        229681
#        248581
#        265569
#        299042
#        331794
#
# Disc length: 4738 seconds
#
# Revision: 0
# Processed by: cddbd v1.5.2PL0 Copyright (c) Steve Scherf et al.
# Submitted via: ExactAudioCopy v0.95b4
#
DISCID=d6128010
DTITLE=George Molton - Live From Austin City Saloon
DYEAR=2006
DGENRE=Country
TTITLE0=My Redneck Of The Woods
TTITLE1=Honkytonk World
TTITLE2=Weekend Superstar
TTITLE3=Matters Of The Heart
TTITLE4=I Know I Could
TTITLE5=Over A Woman
TTITLE6=Gravel Road
TTITLE7=Whiskey And Lace
TTITLE8=Livin Proof
TTITLE9=Drive Her Out Of My Mind
TTITLE10=It's In The Way
TTITLE11=Hard Rain
TTITLE12=Nobody Cares
TTITLE13=Fly On
TTITLE14=Too Hard To Handle
TTITLE15=I've Gotta Break Free
EXTD=Copyright 2006 George Molton
EXTT0=
EXTT1=
EXTT2=
EXTT3=
EXTT4=
EXTT5=
EXTT6=
EXTT7=
EXTT8=
EXTT9=
EXTT10=
EXTT11=
EXTT12=
EXTT13=
EXTT14=
EXTT15=
PLAYORDER=
